<svg version="1.1" id="Layer_1" xmlns="http://www.w3.org/2000/svg" xmlns:xlink="http://www.w3.org/1999/xlink" x="0px" y="0px"
     width="100%" viewBox="0 0 500 500" enable-background="new 0 0 500 500" xml:space="preserve">
<path fill="#FFFEF8" opacity="1.000000" stroke="none"
      d="
M232.000000,501.000000
	C154.666687,501.000000 77.833366,501.000000 1.000041,501.000000
	C1.000027,334.333405 1.000027,167.666779 1.000014,1.000131
	C167.666565,1.000087 334.333130,1.000087 500.999756,1.000044
	C500.999847,167.666519 500.999847,334.333038 500.999939,500.999786
	C411.500000,501.000000 322.000000,501.000000 232.000000,501.000000
M246.966858,366.977814
	C246.839142,366.857697 246.711426,366.737579 246.755051,365.892914
	C247.803162,365.202087 248.851257,364.511230 249.899368,363.820404
	C249.609833,363.314972 249.320282,362.809509 249.030746,362.304077
	C247.265823,363.266693 244.203369,364.002747 243.988068,365.235901
	C243.423843,368.467438 243.751114,372.006775 244.578903,375.201721
	C244.745941,375.846436 248.684662,375.513947 250.884460,375.631989
	C250.925018,375.154327 250.965576,374.676636 251.006134,374.198975
	C249.251251,373.389343 247.496368,372.579742 244.738541,371.307404
	C247.286407,370.218842 248.527298,369.688660 250.577637,368.812653
	C248.995056,368.099762 248.165527,367.726105 246.966858,366.977814
M250.419708,215.809235
	C232.221161,192.125885 208.503357,179.527008 178.490723,178.874664
	C178.490723,192.819168 178.490723,205.724792 178.490723,217.025925
	C187.286682,220.118027 195.817688,221.816544 202.982178,225.907990
	C217.614716,234.264191 225.665512,247.548172 227.080063,264.518463
	C227.305161,267.219116 227.798630,268.885284 231.052094,268.840088
	C243.041351,268.673553 255.033264,268.696045 267.863495,268.766418
	C270.918396,268.522980 274.471436,270.025543 274.840363,264.417755
	C276.220947,243.432114 290.810272,226.063171 311.169830,220.705170
	C315.276672,219.624344 319.524872,219.080582 323.735474,218.284012
	C323.735474,205.252594 323.735474,192.363297 323.735474,178.886703
	C319.816803,179.078003 316.178955,178.988922 312.618774,179.472076
	C286.904144,182.961609 266.576660,195.577103 250.419708,215.809235
M231.433868,144.934296
	C228.118546,147.945053 224.803207,150.955795 221.612579,153.853287
	C234.037445,171.258194 267.959229,171.258469 279.451355,155.164795
	C269.755798,145.529160 260.132629,135.965469 250.109924,126.004700
	C244.281036,131.914429 238.107147,138.173950 231.433868,144.934296
M281.771027,346.614868
	C284.728699,346.918976 287.686401,347.223083 291.559540,347.621307
	C292.107178,341.375549 293.165588,335.457489 292.928162,329.591888
	C292.796082,326.328522 291.345337,321.773712 288.955170,320.316254
	C286.451538,318.789642 282.111450,320.274841 278.161926,320.463287
	C277.575439,318.637421 274.710388,317.630035 269.142548,319.182983
	C267.906433,319.527740 266.220490,321.503113 266.262695,322.672821
	C266.590393,331.754425 267.290955,340.822601 267.904236,350.329498
	C271.314423,349.974701 274.050354,349.690033 276.986816,349.384521
	C276.986816,345.045807 276.898712,341.230682 277.011505,337.421478
	C277.124878,333.591125 276.303528,329.306976 281.961914,326.731415
	C282.175171,329.209015 282.595306,331.202820 282.464386,333.159760
	C282.177032,337.454712 281.610779,341.730988 281.771027,346.614868
M220.219986,324.507812
	C227.292236,323.967194 222.749176,329.234955 224.389099,331.594543
	C220.537842,332.088196 216.976105,331.854584 214.081451,333.132294
	C211.727905,334.171112 208.729294,336.961578 208.640976,339.084473
	C208.536774,341.589355 210.761078,344.814484 212.914810,346.585693
	C214.534866,347.918030 217.633072,347.468140 220.077866,347.774994
	C221.068863,347.899384 222.115738,347.767853 223.061371,348.028198
	C225.695175,348.753265 228.289276,349.622589 231.493698,350.620056
	C232.545349,343.728912 233.646057,338.022705 234.246643,332.264374
	C235.462509,320.606659 227.692459,314.705597 216.680557,319.148438
	C214.106934,320.186798 212.284409,323.086792 210.116302,325.130280
	C212.528076,326.631744 214.931625,328.146912 217.368103,329.607208
	C217.552490,329.717712 217.970963,329.437653 218.376190,329.308716
	C218.848190,327.983154 219.338852,326.605164 220.219986,324.507812
M179.650482,336.551727
	C180.163361,343.988373 182.734238,347.683472 188.214523,348.860779
	C194.907135,350.298492 201.529648,347.425293 204.896942,341.261444
	C202.505280,340.033081 200.128891,338.812592 198.846176,338.153778
	C196.060837,340.197815 194.242706,341.532074 192.424561,342.866302
	C191.466751,340.440765 190.508957,338.015228 189.426224,335.273346
	C193.683411,335.019257 196.824677,334.885986 199.955780,334.628845
	C202.770828,334.397644 204.458603,332.958160 204.774429,329.988220
	C205.168854,326.279358 205.833298,321.897430 202.033264,320.173523
	C198.747467,318.682892 194.144821,317.889923 190.879822,319.003601
	C183.376419,321.563019 180.431763,328.148254 179.650482,336.551727
M317.240814,338.213776
	C316.285553,338.812164 315.285980,339.351227 314.385864,340.023438
	C313.157562,340.940704 312.004974,341.959381 310.819946,342.934601
	C309.959442,341.453583 308.900360,340.046295 308.312653,338.463959
	C307.957977,337.509003 308.335602,336.282043 308.379700,335.279724
	C311.945251,334.994476 315.257111,334.856049 318.525024,334.401398
	C319.711700,334.236298 321.224274,333.611084 321.853119,332.692566
	C326.023529,326.601410 321.902252,318.449158 314.512970,317.929291
	C306.466736,317.363220 299.089050,324.448090 297.887604,333.894775
	C296.908142,341.595886 299.387543,346.679565 305.107178,348.504150
	C310.890015,350.348846 320.434662,348.079346 322.799042,341.430145
	C321.233215,340.506653 319.572357,339.527100 317.240814,338.213776
M153.933105,334.849518
	C154.582382,341.052704 155.231659,347.255890 155.877899,353.430115
	C163.747040,352.777618 170.818100,352.191284 178.316406,351.569519
	C177.848907,348.843872 177.419373,346.339539 176.945114,343.574524
	C172.634094,344.095612 168.921249,344.544373 164.658112,345.059662
	C164.658112,333.822327 164.658112,322.957336 164.658112,311.663269
	C160.514771,312.128601 156.785660,312.547424 152.590149,313.018616
	C153.041245,320.346466 153.459320,327.137817 153.933105,334.849518
M338.919647,341.114929
	C338.653259,335.813141 338.464142,330.526947 341.921967,324.503418
	C342.692169,327.195160 343.069061,328.512390 343.550873,330.196198
	C346.575134,329.818481 349.425323,329.462524 354.116516,328.876648
	C351.789093,324.564514 350.741730,320.589203 348.162567,318.610992
	C346.622559,317.429779 342.680756,319.379883 339.818604,319.922424
	C338.861328,320.308136 337.779266,319.474152 336.569336,319.195282
	C329.202606,317.497528 327.106873,319.129456 327.461395,326.585175
	C327.713745,331.892578 328.247894,337.197601 328.910706,342.471710
	C329.763000,349.253845 332.832092,350.632446 339.475159,347.385498
	C339.306946,345.610992 339.135651,343.803925 338.919647,341.114929
M250.522842,320.795410
	C248.912018,320.188568 247.328415,319.154846 245.685577,319.050079
	C239.173859,318.634705 238.831253,318.923889 239.023621,325.380371
	C239.186386,330.843872 239.546616,336.319458 240.186722,341.746399
	C241.059021,349.141876 243.460556,350.393677 251.016632,347.653381
	C250.365891,340.318024 248.714645,332.724487 253.499725,324.724152
	C254.156189,327.213898 254.482834,328.452789 254.920029,330.110901
	C257.931885,329.792938 260.812164,329.488892 263.896729,329.163239
	C264.011597,324.770660 263.929626,320.922058 260.165558,318.556488
	C256.496094,316.250366 254.061096,319.411926 250.522842,320.795410
M200.009811,369.345734
	C200.075912,369.192963 200.111450,369.011536 200.218582,368.897247
	C200.293549,368.817230 200.540802,368.761200 200.584686,368.809479
	C202.241837,370.631683 203.884308,372.467194 205.528717,374.300964
	C206.033340,374.088898 206.537949,373.876862 207.042572,373.664795
	C206.785995,370.178894 206.529404,366.692963 206.272827,363.207062
	C205.743790,363.236847 205.214767,363.266632 204.685730,363.296417
	C204.359238,364.716461 204.032745,366.136505 203.668533,367.720612
	C201.914841,366.127960 200.578918,364.914703 198.376663,362.914703
	C197.844757,367.336365 197.474915,370.410736 197.105072,373.485138
	C197.654984,373.594452 198.204895,373.703735 198.754807,373.813049
	C199.150360,372.550995 199.545898,371.288940 200.009811,369.345734
M305.914185,371.506470
	C304.380524,369.575867 302.846863,367.645294 301.184479,365.552643
	C302.381561,365.047272 303.558228,364.550507 304.734894,364.053741
	C304.651520,363.574677 304.568146,363.095581 304.484741,362.616516
	C302.949982,362.750183 300.938995,362.305145 299.958313,363.112122
	C293.941010,368.063538 303.721039,368.732361 302.911285,372.843597
	C300.860840,372.706360 299.096985,372.588318 296.910217,372.441986
	C300.870575,376.788452 302.849182,376.639221 305.914185,371.506470
M234.900375,370.703247
	C235.896057,371.892578 236.891724,373.081909 237.887390,374.271240
	C238.445129,374.097717 239.002853,373.924194 239.560577,373.750671
	C239.288895,370.295166 239.017212,366.839630 238.745529,363.384094
	C238.240570,363.409576 237.735611,363.435028 237.230667,363.460480
	C237.088165,365.031891 236.945663,366.603271 236.803162,368.174652
	C236.510956,368.428223 236.218750,368.681793 235.926544,368.935364
	C234.723618,367.055725 233.520691,365.176117 232.317764,363.296478
	C231.753204,363.586670 231.188660,363.876862 230.624115,364.167023
	C230.396347,367.255554 230.168564,370.344086 229.946930,373.349365
	C231.906921,371.953857 233.200851,371.032593 234.900375,370.703247
M313.339569,372.819916
	C311.710022,372.686279 310.080475,372.552643 307.547424,372.344940
	C310.483246,375.975952 313.469543,376.818390 315.800293,374.203522
	C319.819580,369.694275 314.130371,368.411835 311.698029,365.666473
	C313.413788,365.074615 314.624359,364.657013 315.834961,364.239410
	C315.700775,363.667786 315.566620,363.096130 315.432434,362.524506
	C313.755402,362.928650 311.302887,362.826447 310.616516,363.877502
	C309.911469,364.957153 310.666687,367.266022 311.278961,368.844543
	C311.785126,370.149414 313.014313,371.173828 313.339569,372.819916
M287.979279,373.297668
	C291.662323,368.883331 292.166321,375.305481 295.884705,375.556946
	C293.828583,371.018311 292.120087,367.247040 290.411621,363.475769
	C289.733429,363.561798 289.055237,363.647827 288.377075,363.733856
	C287.453278,366.981384 286.529510,370.228943 285.605713,373.476471
	C286.311218,373.641052 287.016724,373.805634 287.979279,373.297668
M188.003769,364.115479
	C186.875336,366.597168 185.255722,369.015411 184.921814,371.599731
	C184.823395,372.361572 188.812698,374.800720 190.120270,374.311340
	C191.850861,373.663605 193.582245,371.012207 193.882919,369.007446
	C194.365982,365.786682 192.451843,363.667053 188.003769,364.115479
M268.734955,363.442261
	C266.912750,365.560120 264.471619,367.444519 263.545380,369.900299
	C263.121155,371.025116 265.323883,374.143768 266.963470,374.808319
	C269.411713,375.800598 271.857788,374.647552 272.558380,371.832397
	C270.081848,371.718689 266.703278,372.196838 266.403442,371.445892
	C264.606750,366.945404 268.550476,366.204041 272.452209,365.015778
	C270.936157,364.170349 270.175018,363.745941 268.734955,363.442261
M221.926758,374.781342
	C223.007446,374.781342 224.088120,374.781342 225.168091,374.781342
	C225.168091,370.968353 225.168091,367.600189 225.168091,364.036987
	C223.884079,364.036987 222.713196,364.036987 222.237289,364.036987
	C221.945435,367.758148 221.693146,370.975037 221.926758,374.781342
M212.287979,373.866150
	C214.034531,373.964935 215.781082,374.063751 217.527634,374.162537
	C217.581802,373.730804 217.635956,373.299072 217.690125,372.867340
	C216.255417,372.372986 214.820709,371.878632 213.190842,371.317017
	C213.190842,368.674347 213.190842,366.131409 213.190842,363.588470
	C212.660492,363.594604 212.130127,363.600769 211.599777,363.606903
	C211.599777,366.893219 211.599777,370.179504 212.287979,373.866150
M277.624878,363.568695
	C277.090240,365.715149 276.293945,367.840881 276.121674,370.016022
	C276.022614,371.266937 276.612335,373.366272 277.462219,373.722290
	C278.930908,374.337463 280.843536,373.892853 282.569916,373.892853
	C282.600464,373.507812 282.631042,373.122772 282.661591,372.737732
	C281.221619,372.282318 279.781647,371.826935 278.793427,371.514374
	C278.625153,368.634277 278.483002,366.201233 277.624878,363.568695
z"/>
    <path fill="#FFDE5A" opacity="1.000000" stroke="none"
          d="
M267.024170,268.647430
	C255.033264,268.696045 243.041351,268.673553 231.052094,268.840088
	C227.798630,268.885284 227.305161,267.219116 227.080063,264.518463
	C225.665512,247.548172 217.614716,234.264191 202.982178,225.907990
	C195.817688,221.816544 187.286682,220.118027 178.490723,217.025925
	C178.490723,205.724792 178.490723,192.819168 178.490723,178.874664
	C208.503357,179.527008 232.221161,192.125885 250.759109,216.318741
	C261.540009,232.523788 267.820984,249.498001 267.024170,268.647430
z"/>
    <path fill="#FFBD5A" opacity="1.000000" stroke="none"
          d="
M267.443848,268.706909
	C267.820984,249.498001 261.540009,232.523788 251.055176,216.490784
	C266.576660,195.577103 286.904144,182.961609 312.618774,179.472076
	C316.178955,178.988922 319.816803,179.078003 323.735474,178.886703
	C323.735474,192.363297 323.735474,205.252594 323.735474,218.284012
	C319.524872,219.080582 315.276672,219.624344 311.169830,220.705170
	C290.810272,226.063171 276.220947,243.432114 274.840363,264.417755
	C274.471436,270.025543 270.918396,268.522980 267.443848,268.706909
z"/>
    <path fill="#FF924E" opacity="1.000000" stroke="none"
          d="
M231.683563,144.683884
	C238.107147,138.173950 244.281036,131.914429 250.109924,126.004700
	C260.132629,135.965469 269.755798,145.529160 279.451355,155.164795
	C267.959229,171.258469 234.037445,171.258194 221.612579,153.853287
	C224.803207,150.955795 228.118546,147.945053 231.683563,144.683884
z"/>
    <path fill="#2C2C2C" opacity="1.000000" stroke="none"
          d="
M281.464722,346.314880
	C281.610779,341.730988 282.177032,337.454712 282.464386,333.159760
	C282.595306,331.202820 282.175171,329.209015 281.961914,326.731415
	C276.303528,329.306976 277.124878,333.591125 277.011505,337.421478
	C276.898712,341.230682 276.986816,345.045807 276.986816,349.384521
	C274.050354,349.690033 271.314423,349.974701 267.904236,350.329498
	C267.290955,340.822601 266.590393,331.754425 266.262695,322.672821
	C266.220490,321.503113 267.906433,319.527740 269.142548,319.182983
	C274.710388,317.630035 277.575439,318.637421 278.161926,320.463287
	C282.111450,320.274841 286.451538,318.789642 288.955170,320.316254
	C291.345337,321.773712 292.796082,326.328522 292.928162,329.591888
	C293.165588,335.457489 292.107178,341.375549 291.559540,347.621307
	C287.686401,347.223083 284.728699,346.918976 281.464722,346.314880
z"/>
    <path fill="#2F2E2E" opacity="1.000000" stroke="none"
          d="
M220.024750,324.867493
	C219.338852,326.605164 218.848190,327.983154 218.376190,329.308716
	C217.970963,329.437653 217.552490,329.717712 217.368103,329.607208
	C214.931625,328.146912 212.528076,326.631744 210.116302,325.130280
	C212.284409,323.086792 214.106934,320.186798 216.680557,319.148438
	C227.692459,314.705597 235.462509,320.606659 234.246643,332.264374
	C233.646057,338.022705 232.545349,343.728912 231.493698,350.620056
	C228.289276,349.622589 225.695175,348.753265 223.061371,348.028198
	C222.115738,347.767853 221.068863,347.899384 220.077866,347.774994
	C217.633072,347.468140 214.534866,347.918030 212.914810,346.585693
	C210.761078,344.814484 208.536774,341.589355 208.640976,339.084473
	C208.729294,336.961578 211.727905,334.171112 214.081451,333.132294
	C216.976105,331.854584 220.537842,332.088196 224.389099,331.594543
	C222.749176,329.234955 227.292236,323.967194 220.024750,324.867493
M224.085144,339.394592
	C223.443787,338.602966 222.802444,337.811340 222.161087,337.019714
	C221.111053,338.107300 219.836639,339.073090 219.141678,340.353424
	C218.920502,340.760864 220.240219,342.004700 220.854843,342.865784
	C221.917343,341.992584 222.979843,341.119385 224.085144,339.394592
z"/>
    <path fill="#2F2F2F" opacity="1.000000" stroke="none"
          d="
M179.671677,336.149963
	C180.431763,328.148254 183.376419,321.563019 190.879822,319.003601
	C194.144821,317.889923 198.747467,318.682892 202.033264,320.173523
	C205.833298,321.897430 205.168854,326.279358 204.774429,329.988220
	C204.458603,332.958160 202.770828,334.397644 199.955780,334.628845
	C196.824677,334.885986 193.683411,335.019257 189.426224,335.273346
	C190.508957,338.015228 191.466751,340.440765 192.424561,342.866302
	C194.242706,341.532074 196.060837,340.197815 198.846176,338.153778
	C200.128891,338.812592 202.505280,340.033081 204.896942,341.261444
	C201.529648,347.425293 194.907135,350.298492 188.214523,348.860779
	C182.734238,347.683472 180.163361,343.988373 179.671677,336.149963
z"/>
    <path fill="#2F2F2F" opacity="1.000000" stroke="none"
          d="
M317.576172,338.380646
	C319.572357,339.527100 321.233215,340.506653 322.799042,341.430145
	C320.434662,348.079346 310.890015,350.348846 305.107178,348.504150
	C299.387543,346.679565 296.908142,341.595886 297.887604,333.894775
	C299.089050,324.448090 306.466736,317.363220 314.512970,317.929291
	C321.902252,318.449158 326.023529,326.601410 321.853119,332.692566
	C321.224274,333.611084 319.711700,334.236298 318.525024,334.401398
	C315.257111,334.856049 311.945251,334.994476 308.379700,335.279724
	C308.335602,336.282043 307.957977,337.509003 308.312653,338.463959
	C308.900360,340.046295 309.959442,341.453583 310.819946,342.934601
	C312.004974,341.959381 313.157562,340.940704 314.385864,340.023438
	C315.285980,339.351227 316.285553,338.812164 317.576172,338.380646
z"/>
    <path fill="#2C2C2C" opacity="1.000000" stroke="none"
          d="
M153.905243,334.389343
	C153.459320,327.137817 153.041245,320.346466 152.590149,313.018616
	C156.785660,312.547424 160.514771,312.128601 164.658112,311.663269
	C164.658112,322.957336 164.658112,333.822327 164.658112,345.059662
	C168.921249,344.544373 172.634094,344.095612 176.945114,343.574524
	C177.419373,346.339539 177.848907,348.843872 178.316406,351.569519
	C170.818100,352.191284 163.747040,352.777618 155.877899,353.430115
	C155.231659,347.255890 154.582382,341.052704 153.905243,334.389343
z"/>
    <path fill="#2F2E2E" opacity="1.000000" stroke="none"
          d="
M338.942017,341.555908
	C339.135651,343.803925 339.306946,345.610992 339.475159,347.385498
	C332.832092,350.632446 329.763000,349.253845 328.910706,342.471710
	C328.247894,337.197601 327.713745,331.892578 327.461395,326.585175
	C327.106873,319.129456 329.202606,317.497528 336.569336,319.195282
	C337.779266,319.474152 338.861328,320.308136 339.818604,319.922424
	C342.680756,319.379883 346.622559,317.429779 348.162567,318.610992
	C350.741730,320.589203 351.789093,324.564514 354.116516,328.876648
	C349.425323,329.462524 346.575134,329.818481 343.550873,330.196198
	C343.069061,328.512390 342.692169,327.195160 341.921967,324.503418
	C338.464142,330.526947 338.653259,335.813141 338.942017,341.555908
M339.143707,321.487671
	C339.347961,321.569397 339.552246,321.651123 339.756500,321.732880
	C339.695251,321.506683 339.634033,321.280487 339.143707,321.487671
z"/>
    <path fill="#2F2E2E" opacity="1.000000" stroke="none"
          d="
M250.913239,320.882263
	C254.061096,319.411926 256.496094,316.250366 260.165558,318.556488
	C263.929626,320.922058 264.011597,324.770660 263.896729,329.163239
	C260.812164,329.488892 257.931885,329.792938 254.920029,330.110901
	C254.482834,328.452789 254.156189,327.213898 253.499725,324.724152
	C248.714645,332.724487 250.365891,340.318024 251.016632,347.653381
	C243.460556,350.393677 241.059021,349.141876 240.186722,341.746399
	C239.546616,336.319458 239.186386,330.843872 239.023621,325.380371
	C238.831253,318.923889 239.173859,318.634705 245.685577,319.050079
	C247.328415,319.154846 248.912018,320.188568 250.913239,320.882263
z"/>
    <path fill="#FFC772" opacity="1.000000" stroke="none"
          d="
M199.975632,369.686340
	C199.545898,371.288940 199.150360,372.550995 198.754807,373.813049
	C198.204895,373.703735 197.654984,373.594452 197.105072,373.485138
	C197.474915,370.410736 197.844757,367.336365 198.376663,362.914703
	C200.578918,364.914703 201.914841,366.127960 203.668533,367.720612
	C204.032745,366.136505 204.359238,364.716461 204.685730,363.296417
	C205.214767,363.266632 205.743790,363.236847 206.272827,363.207062
	C206.529404,366.692963 206.785995,370.178894 207.042572,373.664795
	C206.537949,373.876862 206.033340,374.088898 205.528717,374.300964
	C203.884308,372.467194 202.241837,370.631683 200.584686,368.809479
	C200.540802,368.761200 200.293549,368.817230 200.218582,368.897247
	C200.111450,369.011536 200.075912,369.192963 199.975632,369.686340
z"/>
    <path fill="#FFC772" opacity="1.000000" stroke="none"
          d="
M247.335999,367.352448
	C248.165527,367.726105 248.995056,368.099762 250.577637,368.812653
	C248.527298,369.688660 247.286407,370.218842 244.738541,371.307404
	C247.496368,372.579742 249.251251,373.389343 251.006134,374.198975
	C250.965576,374.676636 250.925018,375.154327 250.884460,375.631989
	C248.684662,375.513947 244.745941,375.846436 244.578903,375.201721
	C243.751114,372.006775 243.423843,368.467438 243.988068,365.235901
	C244.203369,364.002747 247.265823,363.266693 249.030746,362.304077
	C249.320282,362.809509 249.609833,363.314972 249.899368,363.820404
	C248.851257,364.511230 247.803162,365.202087 246.531403,366.423492
	C246.650513,367.086853 246.993256,367.219666 247.335999,367.352448
z"/>
    <path fill="#FFC772" opacity="1.000000" stroke="none"
          d="
M305.885925,371.877777
	C302.849182,376.639221 300.870575,376.788452 296.910217,372.441986
	C299.096985,372.588318 300.860840,372.706360 302.911285,372.843597
	C303.721039,368.732361 293.941010,368.063538 299.958313,363.112122
	C300.938995,362.305145 302.949982,362.750183 304.484741,362.616516
	C304.568146,363.095581 304.651520,363.574677 304.734894,364.053741
	C303.558228,364.550507 302.381561,365.047272 301.184479,365.552643
	C302.846863,367.645294 304.380524,369.575867 305.885925,371.877777
z"/>
    <path fill="#FFC772" opacity="1.000000" stroke="none"
          d="
M234.697571,370.407288
	C233.200851,371.032593 231.906921,371.953857 229.946930,373.349365
	C230.168564,370.344086 230.396347,367.255554 230.624115,364.167023
	C231.188660,363.876862 231.753204,363.586670 232.317764,363.296478
	C233.520691,365.176117 234.723618,367.055725 235.926544,368.935364
	C236.218750,368.681793 236.510956,368.428223 236.803162,368.174652
	C236.945663,366.603271 237.088165,365.031891 237.230667,363.460480
	C237.735611,363.435028 238.240570,363.409576 238.745529,363.384094
	C239.017212,366.839630 239.288895,370.295166 239.560577,373.750671
	C239.002853,373.924194 238.445129,374.097717 237.887390,374.271240
	C236.891724,373.081909 235.896057,371.892578 234.697571,370.407288
z"/>
    <path fill="#FFC772" opacity="1.000000" stroke="none"
          d="
M313.631348,372.571228
	C313.014313,371.173828 311.785126,370.149414 311.278961,368.844543
	C310.666687,367.266022 309.911469,364.957153 310.616516,363.877502
	C311.302887,362.826447 313.755402,362.928650 315.432434,362.524506
	C315.566620,363.096130 315.700775,363.667786 315.834961,364.239410
	C314.624359,364.657013 313.413788,365.074615 311.698029,365.666473
	C314.130371,368.411835 319.819580,369.694275 315.800293,374.203522
	C313.469543,376.818390 310.483246,375.975952 307.547424,372.344940
	C310.080475,372.552643 311.710022,372.686279 313.631348,372.571228
z"/>
    <path fill="#FFC772" opacity="1.000000" stroke="none"
          d="
M287.850769,373.633911
	C287.016724,373.805634 286.311218,373.641052 285.605713,373.476471
	C286.529510,370.228943 287.453278,366.981384 288.377075,363.733856
	C289.055237,363.647827 289.733429,363.561798 290.411621,363.475769
	C292.120087,367.247040 293.828583,371.018311 295.884705,375.556946
	C292.166321,375.305481 291.662323,368.883331 287.850769,373.633911
z"/>
    <path fill="#FFC772" opacity="1.000000" stroke="none"
          d="
M188.393433,364.040527
	C192.451843,363.667053 194.365982,365.786682 193.882919,369.007446
	C193.582245,371.012207 191.850861,373.663605 190.120270,374.311340
	C188.812698,374.800720 184.823395,372.361572 184.921814,371.599731
	C185.255722,369.015411 186.875336,366.597168 188.393433,364.040527
M187.513397,367.280518
	C187.954498,368.884308 188.395615,370.488098 188.836716,372.091888
	C189.873871,371.099457 191.698441,370.171783 191.786514,369.101227
	C191.977921,366.774384 190.779892,365.186523 187.513397,367.280518
z"/>
    <path fill="#FFC772" opacity="1.000000" stroke="none"
          d="
M269.074432,363.381897
	C270.175018,363.745941 270.936157,364.170349 272.452209,365.015778
	C268.550476,366.204041 264.606750,366.945404 266.403442,371.445892
	C266.703278,372.196838 270.081848,371.718689 272.558380,371.832397
	C271.857788,374.647552 269.411713,375.800598 266.963470,374.808319
	C265.323883,374.143768 263.121155,371.025116 263.545380,369.900299
	C264.471619,367.444519 266.912750,365.560120 269.074432,363.381897
z"/>
    <path fill="#FFC772" opacity="1.000000" stroke="none"
          d="
M221.683807,374.486633
	C221.693146,370.975037 221.945435,367.758148 222.237289,364.036987
	C222.713196,364.036987 223.884079,364.036987 225.168091,364.036987
	C225.168091,367.600189 225.168091,370.968353 225.168091,374.781342
	C224.088120,374.781342 223.007446,374.781342 221.683807,374.486633
z"/>
    <path fill="#FFC772" opacity="1.000000" stroke="none"
          d="
M211.943878,373.665955
	C211.599777,370.179504 211.599777,366.893219 211.599777,363.606903
	C212.130127,363.600769 212.660492,363.594604 213.190842,363.588470
	C213.190842,366.131409 213.190842,368.674347 213.190842,371.317017
	C214.820709,371.878632 216.255417,372.372986 217.690125,372.867340
	C217.635956,373.299072 217.581802,373.730804 217.527634,374.162537
	C215.781082,374.063751 214.034531,373.964935 211.943878,373.665955
z"/>
    <path fill="#FFC772" opacity="1.000000" stroke="none"
          d="
M277.982849,363.668457
	C278.483002,366.201233 278.625153,368.634277 278.793427,371.514374
	C279.781647,371.826935 281.221619,372.282318 282.661591,372.737732
	C282.631042,373.122772 282.600464,373.507812 282.569916,373.892853
	C280.843536,373.892853 278.930908,374.337463 277.462219,373.722290
	C276.612335,373.366272 276.022614,371.266937 276.121674,370.016022
	C276.293945,367.840881 277.090240,365.715149 277.982849,363.668457
z"/>
    <path fill="#FFFEF8" opacity="1.000000" stroke="none"
          d="
M224.063751,339.820374
	C222.979843,341.119385 221.917343,341.992584 220.854843,342.865784
	C220.240219,342.004700 218.920502,340.760864 219.141678,340.353424
	C219.836639,339.073090 221.111053,338.107300 222.161102,337.019714
	C222.802444,337.811340 223.443787,338.602966 224.063751,339.820374
z"/>
    <path fill="#FFFEF8" opacity="1.000000" stroke="none"
          d="
M339.358246,321.270996
	C339.634033,321.280487 339.695251,321.506683 339.756500,321.732880
	C339.552246,321.651123 339.347961,321.569397 339.358246,321.270996
z"/>
    <path fill="#FFFEF8" opacity="1.000000" stroke="none"
          d="
M247.151428,367.165131
	C246.993256,367.219666 246.650513,367.086853 246.445740,366.785767
	C246.711426,366.737579 246.839142,366.857697 247.151428,367.165131
z"/>
    <path fill="#FFFEF8" opacity="1.000000" stroke="none"
          d="
M187.778564,366.987457
	C190.779892,365.186523 191.977921,366.774384 191.786514,369.101227
	C191.698441,370.171783 189.873871,371.099457 188.836716,372.091888
	C188.395615,370.488098 187.954498,368.884308 187.778564,366.987457
z"/>
</svg>